<?xml version="1.0" encoding="utf-8"?>
<!-- Generator: Adobe Illustrator 24.0.1, SVG Export Plug-In . SVG Version: 6.00 Build 0)  -->
<svg version="1.1" id="Layer_2_1_" xmlns="http://www.w3.org/2000/svg" xmlns:xlink="http://www.w3.org/1999/xlink" x="0px" y="0px"
	 viewBox="0 0 456 456" style="enable-background:new 0 0 456 456;" xml:space="preserve">
<style type="text/css">
	.st0{fill:#FFFFFF;}
</style>
<g>
	<g>
		<path class="st0" d="M56.4,448.9c-7.7-2.9-11.1-8.8-12-16.7c-0.4-3.5-1.3-7-2-10.9c-3.5,0-6.9,0-10.3,0c-9.6-0.1-15.9-6.4-16-15.9
			c-0.1-13-0.1-26.1,0-39.1c0.1-9.4,6.3-15.4,15.7-15.6c3.1,0,6.3,0,10.1,0c0-1.9,0-3.6,0-5.2c0-21.9,0-43.8,0-65.8
			c0-9.5,4.1-13.7,13.6-13.7c21.8,0,43.6,0,65.3,0c1.7,0,3.4,0,5.6,0c0.1-1.8,0.2-3.4,0.2-4.9c0-8.9-0.1-17.8,0-26.6
			c0.1-7.7,4.3-11.9,12.1-11.9c38.8-0.1,77.6-0.1,116.5,0c8.4,0,12.4,4.4,12.4,13.5c0,36.4,0,72.8,0,109.2c0,1.7,0,3.4,0,5.3
			c18.4,0,36.2,0,54.5,0c0.1-1.8,0.2-3.5,0.2-5.1c0-28.5,0-57,0-85.5c0-3.5,0.4-6.7,4-8.3c3.9-1.7,7.6-0.1,8.8,4
			c0.5,1.7,0.6,3.7,0.6,5.5c0,27.8,0,55.6,0,83.4c0,5.8,0,5.8,6,5.7c11.7-0.2,11.7-0.2,11.7-12c0-44-0.1-88,0.1-131.9
			c0-4.3-0.9-6.1-5.4-5.5c-2.8,0.4-5.7,0.2-8.6,0c-2.6-0.2-3.6,0.9-3.6,3.4c0,7.6-0.1,15.2-0.2,22.8c0,3.2-0.9,6.4-4.2,7.2
			c-2,0.5-5.1,0.1-6.6-1.2c-1.6-1.3-2.4-4.2-2.5-6.4c-0.3-8.3-0.2-16.6-0.1-24.9c0.1-3-1-3.9-3.8-5c-9.3-3.9-18.5-8.1-27.5-12.8
			c-5.3-2.8-6.3-6.8-3.7-10.5c2.4-3.4,5.9-3.5,10.9-0.2c43.7,28.6,100.8,12.2,122-35c22.6-50.5-10.8-109.5-65.6-115.7
			c-51.2-5.9-94.7,34.3-92.8,85.8c0.6,14.7,4.9,28.4,12.9,40.9c0.7,1.1,1.5,2.1,2.1,3.2c2.2,3.7,1.6,7.4-1.5,9.5
			c-3.2,2-6.8,1.2-9.3-2.3c-7.8-11-13.1-23.2-15.5-36.5c-9.9-54.2,25-103.8,79.2-113.1C380.2,1.2,430.4,37,439,87.4
			c8.4,49.4-20.1,95-68.2,109.2c-3,0.9-3.7,2.1-3.7,5c0.1,48.1,0.1,96.3,0.1,144.4c0,1.4,0.2,2.8,0.3,4.6c1.9,0,3.4,0,5,0
			c17,0,34.1,0,51.1,0c11.1,0,17,5.8,17.1,16.9c0,12.3,0,24.6,0,37c0,10.6-6.2,16.7-16.9,16.7c-3,0-6,0-9.4,0
			c-0.7,3.7-1.6,7.3-2.1,10.9c-0.9,7.8-4.3,13.8-12,16.7c-8.3,0-16.6,0-24.9,0c-13-4.7-11.1-17.3-14.1-27.6c-1.7,0-3.4,0-5.1,0
			c-67.6,0-135.3,0-202.9,0c-1.6,0-3.2,0.1-4.7-0.1c-3.6-0.5-6.4-3.8-5.9-7.3c0.5-3.6,2.7-5.6,6.4-5.7c1.6-0.1,3.2-0.1,4.7-0.1
			c85.5,0,171.1,0,256.6,0c4.4,0,8.9-0.4,13.3-0.5c2.5-0.1,3.7-1.2,3.7-3.7c0-4.7,0-9.5,0-14.2c0-2.4-1-3.3-3.4-3.3
			c-3.9,0.1-7.7-0.1-11.6-0.1c-126.1,0-252.2,0-378.2,0c-1.5,0-3,0-5,0c0,5.7,0,10.9,0,16c0,5.5,0.2,5.7,5.9,5.7
			c27.1,0,54.2,0,81.2,0c1.4,0,2.9,0,4.3,0.1c3.3,0.2,5.5,2.1,5.9,5.3c0.4,3.1-0.9,6-4.2,7.2c-1.4,0.5-3.1,0.6-4.6,0.6
			c-7.4,0.1-14.9,0-22.5,0c-0.7,4-1.6,7.6-2.1,11.2c-0.9,7.7-4.4,13.4-11.9,16.3C73,448.9,64.7,448.9,56.4,448.9z M140.1,265.3
			c0.8,0.2,1.3,0.3,1.7,0.3c10.1,0.7,13.8,4.5,13.8,14.5c0,21.6,0.1,43.2-0.1,64.9c0,3.9,1,5.1,5,5.1c29.6-0.1,59.3-0.1,88.9,0
			c4,0,4.7-1.5,4.7-5c-0.1-34.8-0.1-69.6,0-104.4c0-3.7-1-4.9-4.8-4.8c-34.9,0.1-69.9,0-104.8,0c-1.4,0-2.8,0.2-4.4,0.2
			C140.1,245.9,140.1,255.5,140.1,265.3z M141.8,279.8c-1.2-0.2-1.9-0.3-2.6-0.3c-26.9-0.1-53.8-0.1-80.7-0.3
			c-3.2,0-3.7,1.4-3.7,4.1c0.1,21,0,42.1,0.1,63.1c0,1.2,0.2,2.5,0.3,4.1c1.9,0,3.4,0,5,0c20.6,0,41.2,0,61.8,0
			c5.4,0,10.9,0,16.3-0.3c1.2-0.1,3.4-1.1,3.5-1.9c0.4-3.9,0.2-7.9,0.2-11.9c-1.8-0.1-3-0.2-4.1-0.2c-6.4-0.1-12.9,0-19.3-0.2
			c-8.4-0.2-12.6-4.4-12.8-12.8c-0.1-4.2,0-8.3,0-12.5c0-10.8,3.6-14.4,14.5-14.4c7.1,0,14.2,0,21.5,0
			C141.8,290.6,141.8,285.3,141.8,279.8z M29.2,372.8c133,0,265.6,0,398.3,0c0.6-9.1,0.6-9.1-8-9.1c-127.5,0-254.9,0-382.4,0
			C28.5,363.7,28.5,363.7,29.2,372.8z M119.3,322.2c7.8,0,15.3,0,22.6,0c0-4.4,0-8.3,0-12.3c-7.7,0-15,0-22.6,0
			C119.3,314.1,119.3,318,119.3,322.2z M73.2,421.8c-2.9,0-5.2,0-7.4,0c-10.9,0.1-9.5-1.3-7.7,9.7c0.5,3.3,2.1,4.4,5.2,4.1
			c1.6-0.1,3.2,0.3,4.7-0.1c1.2-0.3,2.7-1.3,3-2.3C71.9,429.6,72.4,426,73.2,421.8z M392.3,421.8c-2.9,0-5,0-7.1,0
			c-10.9,0.2-10.2-2-7.9,10.1c0.5,2.6,1.7,3.8,4.2,3.7c1.7,0,3.5,0.4,5.1-0.1c1.4-0.4,3.1-1.6,3.5-2.8
			C391.1,429.4,391.5,426,392.3,421.8z"/>
		<path class="st0" d="M344.6,111.1c-18.7,0-37.5,0-56.2,0c-10.1,0-14.3-4.8-13.1-14.8c4.6-36.2,35.3-62.6,71.7-61.7
			c34.9,0.9,64.4,28.9,67.5,64c0.6,7.3-4.1,12.4-11.9,12.5C383.3,111.1,364,111.1,344.6,111.1z M338.2,71.3c0-2.7-0.2-5.3,0-7.9
			c0.4-3.6,2.5-5.7,6.2-5.9c3.5-0.2,6.4,2.2,6.8,5.7c0.2,1.8-0.2,3.8,0.2,5.6c0.3,1.2,1.3,2.9,2.3,3.2c12,3.8,19.8,11.6,23.5,23.6
			c0.3,0.9,1.5,2.3,2.4,2.3c7,0.2,14,0.1,21.5,0.1c-2.9-19.2-12.2-33.7-28.7-42.8C352.3,44,332.1,45,312.9,57.8
			c-14.1,9.4-22.1,22.9-24.5,40.1c8.1,0,15.5,0,23.2,0C315.2,83.9,324.1,75,338.2,71.3z M337.9,97.9c0-4.4,0-8.3,0-12.6
			c-6.2,2.5-10.2,6.4-12.4,12.6C330,97.9,333.8,97.9,337.9,97.9z M351.5,97.8c4.3,0,8.2,0,12.5,0c-2.3-6.2-6.3-10.1-12.5-12.5
			C351.5,89.7,351.5,93.5,351.5,97.8z"/>
		<path class="st0" d="M344.5,166.3c-9.3,0-18.6,0.1-27.9,0c-8.5-0.1-12.6-4.2-12.6-12.7c0-6.4-0.1-12.9,0-19.3
			c0.1-7.6,4.4-12,12.1-12c19.2-0.1,38.4-0.1,57.6,0c7.4,0,11.8,4.4,12,11.7c0.1,6.9,0.1,13.7,0,20.6c-0.1,7.4-4.4,11.7-11.8,11.7
			C364,166.3,354.2,166.3,344.5,166.3z M372.3,135.5c-18.6,0-36.7,0-54.9,0c0,5.9,0,11.6,0,17.3c18.5,0,36.7,0,54.9,0
			C372.3,146.9,372.3,141.3,372.3,135.5z"/>
		<path class="st0" d="M286,122.2c4,0,6.9,2.9,6.8,6.7c-0.1,3.8-3.1,6.4-7.2,6.3c-3.8-0.1-6.6-2.8-6.7-6.4
			C279,125,282,122.2,286,122.2z"/>
		<path class="st0" d="M411.4,128.9c-0.1,3.8-3.1,6.4-7.2,6.3c-3.8-0.1-6.6-2.8-6.6-6.4c0-3.7,3-6.6,7-6.6
			C408.6,122.2,411.5,125.1,411.4,128.9z"/>
		<path class="st0" d="M222.9,288.5c0-7.4,0-14.9,0-22.3c0-4.5,2.6-7.4,6.5-7.5c4-0.1,6.9,2.9,6.9,7.6c0.1,14.7,0,29.4,0,44.1
			c0,4.7-2.8,7.8-6.7,7.8s-6.6-3.1-6.6-7.9C222.8,303.1,222.9,295.8,222.9,288.5z"/>
		<path class="st0" d="M212,272.8c-0.2,2.6-0.1,5.3-0.5,8c-0.5,3.6-3,5.6-6.5,5.6c-3.6,0-6.3-2.1-6.6-5.6
			c-0.5-5.4-0.5-10.9-0.1-16.3c0.3-3.6,2.9-5.9,6.8-5.8c3.6,0.1,5.9,2.2,6.4,5.8C211.9,267.2,211.8,270,212,272.8z"/>
		<path class="st0" d="M78.2,312c4,0,7,2.7,7.1,6.4c0.1,3.7-2.9,6.6-6.8,6.7c-4.1,0.1-7.4-2.9-7.3-6.7C71.2,314.7,74.2,312,78.2,312
			z"/>
		<path class="st0" d="M78,289.4c4-0.1,7.1,2.6,7.2,6.3c0.2,3.8-3,7-7.1,7c-3.8,0-7-3-7.1-6.6C71.1,292.4,74.1,289.5,78,289.4z"/>
	</g>
</g>
</svg>
