<?xml version="1.0" encoding="utf-8"?>
<!-- Generator: Adobe Illustrator 24.0.1, SVG Export Plug-In . SVG Version: 6.00 Build 0)  -->
<svg version="1.1" id="Layer_2_1_" xmlns="http://www.w3.org/2000/svg" xmlns:xlink="http://www.w3.org/1999/xlink" x="0px" y="0px"
	 viewBox="0 0 456 456" style="enable-background:new 0 0 456 456;" xml:space="preserve">
<style type="text/css">
	.st0{fill:#FFFFFF;}
</style>
<g>
	<g>
		<path class="st0" d="M136.3,346.6c-4.1-1.6-5.9-4.7-6.4-8.9c-0.2-1.9-0.7-3.7-1.1-5.8c-1.9,0-3.7,0-5.5,0
			c-5.1-0.1-8.5-3.4-8.6-8.5c-0.1-7-0.1-14,0-20.9c0.1-5,3.4-8.2,8.4-8.3c1.7,0,3.4,0,5.4,0c0-1,0-1.9,0-2.8c0-11.7,0-23.4,0-35.2
			c0-5.1,2.2-7.3,7.3-7.3c11.7,0,23.3,0,34.9,0c0.9,0,1.8,0,3,0c0.1-1,0.1-1.8,0.1-2.6c0-4.8-0.1-9.5,0-14.2
			c0.1-4.1,2.3-6.4,6.5-6.4c20.8-0.1,41.5-0.1,62.3,0c4.5,0,6.6,2.4,6.6,7.2c0,19.5,0,39,0,58.4c0,0.9,0,1.8,0,2.8
			c9.8,0,19.4,0,29.2,0c0.1-1,0.1-1.9,0.1-2.7c0-15.3,0-30.5,0-45.8c0-1.9,0.2-3.6,2.1-4.4c2.1-0.9,4.1-0.1,4.7,2.1
			c0.3,0.9,0.3,2,0.3,2.9c0,14.9,0,29.8,0,44.6c0,3.1,0,3.1,3.2,3.1c6.3-0.1,6.3-0.1,6.3-6.4c0-23.5-0.1-47.1,0.1-70.6
			c0-2.3-0.5-3.3-2.9-2.9c-1.5,0.2-3.1,0.1-4.6,0c-1.4-0.1-1.9,0.5-1.9,1.8c0,4.1-0.1,8.1-0.1,12.2c0,1.7-0.5,3.4-2.2,3.9
			c-1.1,0.3-2.7,0.1-3.5-0.6c-0.9-0.7-1.3-2.2-1.3-3.4c-0.2-4.4-0.1-8.9-0.1-13.3c0.1-1.6-0.5-2.1-2-2.7c-5-2.1-9.9-4.3-14.7-6.9
			c-2.8-1.5-3.4-3.6-2-5.6c1.3-1.8,3.2-1.9,5.8-0.1c23.4,15.3,53.9,6.5,65.3-18.7c12.1-27-5.8-58.6-35.1-61.9
			c-27.4-3.2-50.7,18.4-49.7,45.9c0.3,7.9,2.6,15.2,6.9,21.9c0.4,0.6,0.8,1.1,1.1,1.7c1.2,2,0.9,4-0.8,5.1c-1.7,1.1-3.6,0.6-5-1.2
			c-4.2-5.9-7-12.4-8.3-19.5c-5.3-29,13.4-55.6,42.4-60.5c27-4.8,53.9,14.4,58.5,41.4c4.5,26.4-10.8,50.8-36.5,58.4
			c-1.6,0.5-2,1.1-2,2.7c0.1,25.7,0.1,51.5,0.1,77.3c0,0.7,0.1,1.5,0.2,2.5c1,0,1.8,0,2.7,0c9.1,0,18.2,0,27.3,0
			c5.9,0,9.1,3.1,9.2,9c0,6.6,0,13.2,0,19.8c0,5.7-3.3,8.9-9,8.9c-1.6,0-3.2,0-5,0c-0.4,2-0.9,3.9-1.1,5.8c-0.5,4.2-2.3,7.4-6.4,8.9
			c-4.4,0-8.9,0-13.3,0c-7-2.5-5.9-9.3-7.5-14.8c-0.9,0-1.8,0-2.7,0c-36.2,0-72.4,0-108.6,0c-0.9,0-1.7,0.1-2.5-0.1
			c-1.9-0.3-3.4-2-3.2-3.9c0.3-1.9,1.4-3,3.4-3.1c0.9-0.1,1.7-0.1,2.5-0.1c45.8,0,91.6,0,137.3,0c2.4,0,4.8-0.2,7.1-0.3
			c1.3-0.1,2-0.6,2-2c0-2.5,0-5.1,0-7.6c0-1.3-0.5-1.8-1.8-1.8c-2.1,0.1-4.1-0.1-6.2-0.1c-67.5,0-135,0-202.4,0c-0.8,0-1.6,0-2.7,0
			c0,3.1,0,5.8,0,8.6c0,2.9,0.1,3.1,3.2,3.1c14.5,0,29,0,43.5,0c0.7,0,1.6,0,2.3,0.1c1.8,0.1,2.9,1.1,3.2,2.8
			c0.2,1.7-0.5,3.2-2.2,3.9c-0.7,0.3-1.7,0.3-2.5,0.3c-4,0.1-8,0-12,0c-0.4,2.1-0.9,4.1-1.1,6c-0.5,4.1-2.4,7.2-6.4,8.7
			C145.2,346.6,140.8,346.6,136.3,346.6z M181.1,248.3c0.4,0.1,0.7,0.2,0.9,0.2c5.4,0.4,7.4,2.4,7.4,7.8c0,11.6,0.1,23.1-0.1,34.7
			c0,2.1,0.5,2.7,2.7,2.7c15.8-0.1,31.7-0.1,47.6,0c2.1,0,2.5-0.8,2.5-2.7c-0.1-18.6-0.1-37.2,0-55.9c0-2-0.5-2.6-2.6-2.6
			c-18.7,0.1-37.4,0-56.1,0c-0.7,0-1.5,0.1-2.4,0.1C181.1,238,181.1,243.1,181.1,248.3z M182,256.1c-0.6-0.1-1-0.2-1.4-0.2
			c-14.4-0.1-28.8-0.1-43.2-0.2c-1.7,0-2,0.7-2,2.2c0.1,11.2,0,22.5,0.1,33.8c0,0.6,0.1,1.3,0.2,2.2c1,0,1.8,0,2.7,0
			c11,0,22,0,33.1,0c2.9,0,5.8,0,8.7-0.2c0.6-0.1,1.8-0.6,1.9-1c0.2-2.1,0.1-4.2,0.1-6.4c-1-0.1-1.6-0.1-2.2-0.1
			c-3.4-0.1-6.9,0-10.3-0.1c-4.5-0.1-6.7-2.4-6.9-6.9c-0.1-2.2,0-4.4,0-6.7c0-5.8,1.9-7.7,7.8-7.7c3.8,0,7.6,0,11.5,0
			C182,261.9,182,259,182,256.1z M121.8,305.9c71.2,0,142.1,0,213.2,0c0.3-4.9,0.3-4.9-4.3-4.9c-68.2,0-136.4,0-204.7,0
			C121.4,301,121.4,301,121.8,305.9z M170,278.8c4.2,0,8.2,0,12.1,0c0-2.4,0-4.4,0-6.6c-4.1,0-8,0-12.1,0
			C170,274.5,170,276.5,170,278.8z M145.3,332.1c-1.6,0-2.8,0-4,0c-5.8,0.1-5.1-0.7-4.1,5.2c0.3,1.8,1.1,2.4,2.8,2.2
			c0.9-0.1,1.7,0.2,2.5-0.1c0.6-0.2,1.4-0.7,1.6-1.2C144.6,336.3,144.9,334.3,145.3,332.1z M316.1,332.1c-1.6,0-2.7,0-3.8,0
			c-5.8,0.1-5.5-1.1-4.2,5.4c0.3,1.4,0.9,2,2.2,2c0.9,0,1.9,0.2,2.7-0.1c0.7-0.2,1.7-0.9,1.9-1.5
			C315.5,336.2,315.7,334.3,316.1,332.1z"/>
		<path class="st0" d="M290.6,165.8c-10,0-20.1,0-30.1,0c-5.4,0-7.7-2.6-7-7.9c2.5-19.4,18.9-33.5,38.4-33
			c18.7,0.5,34.5,15.5,36.1,34.3c0.3,3.9-2.2,6.6-6.4,6.7C311.3,165.8,301,165.8,290.6,165.8z M287.1,144.5c0-1.4-0.1-2.8,0-4.2
			c0.2-1.9,1.3-3.1,3.3-3.2c1.9-0.1,3.4,1.2,3.6,3.1c0.1,1-0.1,2,0.1,3c0.2,0.6,0.7,1.6,1.2,1.7c6.4,2,10.6,6.2,12.6,12.6
			c0.2,0.5,0.8,1.2,1.3,1.2c3.7,0.1,7.5,0.1,11.5,0.1c-1.6-10.3-6.5-18-15.4-22.9c-10.8-6-21.6-5.5-31.8,1.4
			c-7.5,5-11.8,12.3-13.1,21.5c4.3,0,8.3,0,12.4,0C274.8,151.3,279.6,146.5,287.1,144.5z M287,158.8c0-2.4,0-4.4,0-6.7
			c-3.3,1.3-5.5,3.4-6.6,6.7C282.8,158.8,284.8,158.8,287,158.8z M294.3,158.7c2.3,0,4.4,0,6.7,0c-1.2-3.3-3.4-5.4-6.7-6.7
			C294.3,154.4,294.3,156.4,294.3,158.7z"/>
		<path class="st0" d="M290.5,195.4c-5,0-10,0.1-14.9,0c-4.5-0.1-6.7-2.2-6.7-6.8c0-3.4-0.1-6.9,0-10.3c0.1-4.1,2.4-6.4,6.5-6.4
			c10.3-0.1,20.6-0.1,30.8,0c4,0,6.3,2.4,6.4,6.3c0.1,3.7,0.1,7.3,0,11c-0.1,4-2.4,6.3-6.3,6.3C301,195.4,295.7,195.4,290.5,195.4z
			 M305.4,178.9c-10,0-19.6,0-29.4,0c0,3.2,0,6.2,0,9.3c9.9,0,19.6,0,29.4,0C305.4,185,305.4,182,305.4,178.9z"/>
		<path class="st0" d="M259.2,171.8c2.1,0,3.7,1.6,3.6,3.6c-0.1,2-1.7,3.4-3.9,3.4c-2-0.1-3.5-1.5-3.6-3.4
			C255.5,173.3,257.1,171.8,259.2,171.8z"/>
		<path class="st0" d="M326.3,175.3c-0.1,2-1.7,3.4-3.9,3.4c-2-0.1-3.5-1.5-3.5-3.4c0-2,1.6-3.5,3.7-3.5
			C324.8,171.8,326.4,173.3,326.3,175.3z"/>
		<path class="st0" d="M225.4,260.8c0-4,0-8,0-11.9c0-2.4,1.4-4,3.5-4c2.1-0.1,3.7,1.6,3.7,4.1c0.1,7.9,0,15.7,0,23.6
			c0,2.5-1.5,4.2-3.6,4.2s-3.5-1.7-3.5-4.2C225.4,268.6,225.4,264.7,225.4,260.8z"/>
		<path class="st0" d="M219.6,252.4c-0.1,1.4-0.1,2.8-0.3,4.3c-0.3,1.9-1.6,3-3.5,3c-1.9,0-3.4-1.1-3.5-3c-0.3-2.9-0.3-5.8-0.1-8.7
			c0.2-1.9,1.6-3.2,3.6-3.1c1.9,0.1,3.2,1.2,3.4,3.1C219.6,249.4,219.5,250.9,219.6,252.4z"/>
		<path class="st0" d="M148,273.3c2.1,0,3.7,1.4,3.8,3.4s-1.6,3.5-3.6,3.6c-2.2,0.1-4-1.6-3.9-3.6
			C144.3,274.8,145.9,273.3,148,273.3z"/>
		<path class="st0" d="M147.9,261.2c2.1-0.1,3.8,1.4,3.9,3.4c0.1,2-1.6,3.7-3.8,3.7c-2,0-3.7-1.6-3.8-3.5
			C144.2,262.8,145.8,261.3,147.9,261.2z"/>
	</g>
</g>
</svg>
